<svg width="105" height="32" viewBox="0 0 105 32" fill="none" xmlns="http://www.w3.org/2000/svg">
<path d="M44.176 18.832C44.176 19.504 44.0107 20.0907 43.68 20.592C43.3493 21.0933 42.8693 21.4827 42.24 21.76C41.6213 22.0267 40.864 22.16 39.968 22.16C39.5733 22.16 39.184 22.1333 38.8 22.08C38.4267 22.0267 38.064 21.952 37.712 21.856C37.3707 21.7493 37.0453 21.6213 36.736 21.472V19.216C37.28 19.4507 37.84 19.6693 38.416 19.872C39.0027 20.064 39.584 20.16 40.16 20.16C40.5547 20.16 40.8693 20.1067 41.104 20C41.3493 19.8933 41.5253 19.7493 41.632 19.568C41.7493 19.3867 41.808 19.1787 41.808 18.944C41.808 18.656 41.7067 18.4107 41.504 18.208C41.312 18.0053 41.0507 17.8187 40.72 17.648C40.3893 17.4667 40.0107 17.2747 39.584 17.072C39.3173 16.944 39.0293 16.7947 38.72 16.624C38.4107 16.4427 38.112 16.224 37.824 15.968C37.5467 15.7013 37.3173 15.3813 37.136 15.008C36.9547 14.6347 36.864 14.1867 36.864 13.664C36.864 12.9813 37.0187 12.4 37.328 11.92C37.648 11.4293 38.096 11.056 38.672 10.8C39.2587 10.544 39.9467 10.416 40.736 10.416C41.3333 10.416 41.8987 10.4853 42.432 10.624C42.976 10.7627 43.5413 10.96 44.128 11.216L43.344 13.104C42.8213 12.8907 42.352 12.7253 41.936 12.608C41.52 12.4907 41.0933 12.432 40.656 12.432C40.3573 12.432 40.1013 12.48 39.888 12.576C39.6747 12.672 39.5093 12.8053 39.392 12.976C39.2853 13.1467 39.232 13.3493 39.232 13.584C39.232 13.8507 39.312 14.08 39.472 14.272C39.632 14.4533 39.872 14.6293 40.192 14.8C40.512 14.9707 40.912 15.1733 41.392 15.408C41.9787 15.6853 42.4747 15.9733 42.88 16.272C43.296 16.5707 43.616 16.9227 43.84 17.328C44.064 17.7333 44.176 18.2347 44.176 18.832ZM48.7805 20.256C49.0472 20.256 49.3032 20.2293 49.5485 20.176C49.7938 20.1227 50.0392 20.0587 50.2845 19.984V21.76C50.0285 21.8667 49.7085 21.9573 49.3245 22.032C48.9512 22.1173 48.5405 22.16 48.0925 22.16C47.5698 22.16 47.1005 22.0747 46.6845 21.904C46.2792 21.7333 45.9538 21.44 45.7085 21.024C45.4738 20.5973 45.3565 20.0107 45.3565 19.264V15.056H44.2205V14.048L45.5325 13.248L46.2205 11.408H47.7405V13.264H50.1885V15.056H47.7405V19.264C47.7405 19.5947 47.8365 19.8453 48.0285 20.016C48.2205 20.176 48.4712 20.256 48.7805 20.256ZM49.83 13.264H52.438L54.086 18.176C54.1393 18.336 54.182 18.496 54.214 18.656C54.2567 18.816 54.2887 18.9813 54.31 19.152C54.342 19.3227 54.3633 19.504 54.374 19.696H54.422C54.454 19.4187 54.4967 19.1573 54.55 18.912C54.614 18.656 54.6833 18.4107 54.758 18.176L56.374 13.264H58.934L55.238 23.12C55.014 23.7173 54.7207 24.2187 54.358 24.624C54.006 25.0293 53.5953 25.3333 53.126 25.536C52.6567 25.7387 52.1447 25.84 51.59 25.84C51.3233 25.84 51.0887 25.824 50.886 25.792C50.694 25.7707 50.5233 25.744 50.374 25.712V23.824C50.4913 23.8453 50.63 23.8667 50.79 23.888C50.9607 23.9093 51.1367 23.92 51.318 23.92C51.6487 23.92 51.9313 23.8507 52.166 23.712C52.4113 23.5733 52.614 23.3813 52.774 23.136C52.934 22.9013 53.062 22.6453 53.158 22.368L53.302 21.936L49.83 13.264ZM61.6114 22H59.2274V9.84H61.6114V22ZM66.7424 13.104C67.553 13.104 68.2464 13.2587 68.8224 13.568C69.409 13.8773 69.8624 14.3253 70.1824 14.912C70.5024 15.4987 70.6624 16.2187 70.6624 17.072V18.224H65.0304C65.0517 18.896 65.249 19.424 65.6224 19.808C66.0064 20.192 66.5344 20.384 67.2064 20.384C67.7717 20.384 68.2837 20.3307 68.7424 20.224C69.201 20.1067 69.6757 19.9307 70.1664 19.696V21.536C69.7397 21.7493 69.2864 21.904 68.8064 22C68.337 22.1067 67.7664 22.16 67.0944 22.16C66.2197 22.16 65.4464 22 64.7744 21.68C64.1024 21.3493 63.5744 20.8533 63.1904 20.192C62.8064 19.5307 62.6144 18.6987 62.6144 17.696C62.6144 16.672 62.785 15.824 63.1264 15.152C63.4784 14.4693 63.9637 13.9573 64.5824 13.616C65.201 13.2747 65.921 13.104 66.7424 13.104ZM66.7584 14.8C66.2997 14.8 65.9157 14.9493 65.6064 15.248C65.3077 15.5467 65.1317 16.0107 65.0784 16.64H68.4224C68.4224 16.288 68.3584 15.9733 68.2304 15.696C68.113 15.4187 67.9317 15.2 67.6864 15.04C67.441 14.88 67.1317 14.8 66.7584 14.8ZM81.9555 22H78.8835L73.9075 13.36H73.8435C73.8542 13.6267 73.8648 13.8987 73.8755 14.176C73.8862 14.4427 73.8968 14.7147 73.9075 14.992C73.9288 15.2587 73.9448 15.5307 73.9555 15.808C73.9662 16.0747 73.9768 16.3467 73.9875 16.624V22H71.8275V10.576H74.8835L79.8435 19.136H79.8915C79.8808 18.8693 79.8702 18.608 79.8595 18.352C79.8488 18.0853 79.8382 17.824 79.8275 17.568C79.8275 17.3013 79.8222 17.04 79.8115 16.784C79.8008 16.5173 79.7902 16.2507 79.7795 15.984V10.576H81.9555V22ZM87.2911 13.104C88.1018 13.104 88.7951 13.2587 89.3711 13.568C89.9578 13.8773 90.4111 14.3253 90.7311 14.912C91.0511 15.4987 91.2111 16.2187 91.2111 17.072V18.224H85.5791C85.6005 18.896 85.7978 19.424 86.1711 19.808C86.5551 20.192 87.0831 20.384 87.7551 20.384C88.3205 20.384 88.8325 20.3307 89.2911 20.224C89.7498 20.1067 90.2245 19.9307 90.7151 19.696V21.536C90.2885 21.7493 89.8351 21.904 89.3551 22C88.8858 22.1067 88.3151 22.16 87.6431 22.16C86.7685 22.16 85.9951 22 85.3231 21.68C84.6511 21.3493 84.1231 20.8533 83.7391 20.192C83.3551 19.5307 83.1631 18.6987 83.1631 17.696C83.1631 16.672 83.3338 15.824 83.6751 15.152C84.0271 14.4693 84.5125 13.9573 85.1311 13.616C85.7498 13.2747 86.4698 13.104 87.2911 13.104ZM87.3071 14.8C86.8485 14.8 86.4645 14.9493 86.1551 15.248C85.8565 15.5467 85.6805 16.0107 85.6271 16.64H88.9711C88.9711 16.288 88.9071 15.9733 88.7791 15.696C88.6618 15.4187 88.4805 15.2 88.2351 15.04C87.9898 14.88 87.6805 14.8 87.3071 14.8ZM98.2802 19.408C98.2802 19.9947 98.1416 20.496 97.8642 20.912C97.5869 21.3173 97.1709 21.6267 96.6162 21.84C96.0616 22.0533 95.3736 22.16 94.5522 22.16C93.9442 22.16 93.4216 22.1173 92.9842 22.032C92.5469 21.9573 92.1096 21.8293 91.6722 21.648V19.68C92.1416 19.8933 92.6482 20.0693 93.1922 20.208C93.7362 20.3467 94.2162 20.416 94.6322 20.416C95.1016 20.416 95.4322 20.3467 95.6242 20.208C95.8269 20.0693 95.9282 19.888 95.9282 19.664C95.9282 19.5147 95.8856 19.3813 95.8002 19.264C95.7256 19.1467 95.5549 19.0133 95.2882 18.864C95.0216 18.7147 94.6056 18.5227 94.0402 18.288C93.4962 18.0533 93.0482 17.824 92.6962 17.6C92.3442 17.3653 92.0829 17.088 91.9122 16.768C91.7416 16.4373 91.6562 16.0267 91.6562 15.536C91.6562 14.7253 91.9709 14.1173 92.6002 13.712C93.2296 13.3067 94.0669 13.104 95.1122 13.104C95.6562 13.104 96.1736 13.1573 96.6642 13.264C97.1549 13.3707 97.6616 13.5467 98.1842 13.792L97.4642 15.504C97.1762 15.376 96.8989 15.264 96.6322 15.168C96.3656 15.072 96.1042 14.9973 95.8482 14.944C95.6029 14.8907 95.3469 14.864 95.0802 14.864C94.7282 14.864 94.4616 14.912 94.2802 15.008C94.1096 15.104 94.0242 15.248 94.0242 15.44C94.0242 15.5787 94.0669 15.7067 94.1522 15.824C94.2482 15.9307 94.4242 16.048 94.6802 16.176C94.9469 16.304 95.3362 16.4747 95.8482 16.688C96.3496 16.8907 96.7816 17.104 97.1442 17.328C97.5069 17.5413 97.7842 17.8133 97.9762 18.144C98.1789 18.464 98.2802 18.8853 98.2802 19.408ZM102.857 20.256C103.124 20.256 103.38 20.2293 103.625 20.176C103.871 20.1227 104.116 20.0587 104.361 19.984V21.76C104.105 21.8667 103.785 21.9573 103.401 22.032C103.028 22.1173 102.617 22.16 102.169 22.16C101.647 22.16 101.177 22.0747 100.761 21.904C100.356 21.7333 100.031 21.44 99.7854 21.024C99.5507 20.5973 99.4334 20.0107 99.4334 19.264V15.056H98.2974V14.048L99.6094 13.248L100.297 11.408H101.817V13.264H104.265V15.056H101.817V19.264C101.817 19.5947 101.913 19.8453 102.105 20.016C102.297 20.176 102.548 20.256 102.857 20.256Z" fill="#171717"/>
<path fill-rule="evenodd" clip-rule="evenodd" d="M19.0741 9.69614C19.8281 10.2513 20.2549 11.0302 20.3543 12.0328H25.5123C25.4875 10.5165 25.0814 9.18241 24.2943 8.03066C23.5725 6.97466 22.5861 6.1311 21.335 5.5L27.6667 5.5C28.9553 5.5 30 6.54467 30 7.83333V24.1667C30 25.4553 28.9553 26.5 27.6667 26.5H24.9493C25.5494 25.4563 25.8531 24.2548 25.8603 22.8957C25.852 21.8351 25.6573 20.8946 25.2762 20.0743C24.9033 19.254 24.3771 18.5414 23.6977 17.9366C23.0182 17.3317 22.2145 16.8221 21.2865 16.4078C20.3584 15.9935 19.3393 15.662 18.2289 15.4135L15.942 14.8666C15.3868 14.7423 14.8648 14.5932 14.3759 14.4192C13.8871 14.2369 13.4562 14.0256 13.0833 13.7853C12.7105 13.5367 12.4163 13.2425 12.2009 12.9028C11.9937 12.5631 11.8984 12.1654 11.915 11.7096C11.915 11.1628 12.0724 10.6739 12.3873 10.243C12.7105 9.81214 13.1745 9.47656 13.7794 9.23627C14.3842 8.98769 15.1258 8.8634 16.0041 8.8634C17.2968 8.8634 18.3201 9.14098 19.0741 9.69614ZM6.87106 26.5H4.33333C3.04467 26.5 2 25.4553 2 24.1667V7.83333C2 6.54467 3.04467 5.5 4.33333 5.5L10.7126 5.5C9.42284 6.1311 8.39432 6.97466 7.62701 8.03066C6.79841 9.18241 6.38826 10.5289 6.39654 12.0701C6.38826 13.951 7.00556 15.4466 8.24846 16.5569C9.49136 17.6673 11.1858 18.4834 13.3319 19.0054L16.1036 19.7015C17.0316 19.9252 17.8146 20.1738 18.4527 20.4472C19.099 20.7206 19.5878 21.0521 19.9193 21.4415C20.259 21.831 20.4289 22.3116 20.4289 22.8833C20.4289 23.4964 20.2424 24.0392 19.8696 24.5115C19.4967 24.9838 18.9705 25.3525 18.2911 25.6177C17.6199 25.8828 16.8286 26.0154 15.9171 26.0154C14.9891 26.0154 14.1564 25.8745 13.4189 25.5928C12.6897 25.3028 12.1056 24.8761 11.6664 24.3126C11.2356 23.7409 10.9911 23.0283 10.9331 22.1748H5.72538C5.76369 23.868 6.14558 25.3098 6.87106 26.5Z" fill="#6366F1"/>
</svg>
